<mxfile host="app.diagrams.net" modified="2024-05-09T10:29:01.882Z" agent="Mozilla/5.0 (Windows NT 10.0; Win64; x64) AppleWebKit/537.36 (KHTML, like Gecko) Chrome/124.0.0.0 Safari/537.36" etag="641Iz3f9TxcuSehTJ8LB" version="24.3.1" type="google">
  <diagram name="Page-1" id="V5hCphB_zFMiBJYu68jA">
    <mxGraphModel grid="1" page="1" gridSize="10" guides="1" tooltips="1" connect="1" arrows="1" fold="1" pageScale="1" pageWidth="827" pageHeight="1169" math="0" shadow="0">
      <root>
        <mxCell id="0" />
        <mxCell id="1" parent="0" />
        <mxCell id="EBdAOXyR472dt-JqcAwF-13" style="edgeStyle=orthogonalEdgeStyle;rounded=0;orthogonalLoop=1;jettySize=auto;html=1;exitX=0.5;exitY=1;exitDx=0;exitDy=0;entryX=0.5;entryY=0;entryDx=0;entryDy=0;" edge="1" parent="1" source="EBdAOXyR472dt-JqcAwF-1" target="EBdAOXyR472dt-JqcAwF-8">
          <mxGeometry relative="1" as="geometry" />
        </mxCell>
        <mxCell id="EBdAOXyR472dt-JqcAwF-1" value="Back Office" style="rounded=0;whiteSpace=wrap;html=1;" vertex="1" parent="1">
          <mxGeometry x="240" y="120" width="220" height="110" as="geometry" />
        </mxCell>
        <mxCell id="EBdAOXyR472dt-JqcAwF-16" value="" style="edgeStyle=orthogonalEdgeStyle;rounded=0;orthogonalLoop=1;jettySize=auto;html=1;" edge="1" parent="1" source="EBdAOXyR472dt-JqcAwF-4" target="EBdAOXyR472dt-JqcAwF-15">
          <mxGeometry relative="1" as="geometry" />
        </mxCell>
        <mxCell id="EBdAOXyR472dt-JqcAwF-4" value="Handling Cash" style="rounded=0;whiteSpace=wrap;html=1;" vertex="1" parent="1">
          <mxGeometry x="200" y="320" width="120" height="60" as="geometry" />
        </mxCell>
        <mxCell id="EBdAOXyR472dt-JqcAwF-18" value="" style="edgeStyle=orthogonalEdgeStyle;rounded=0;orthogonalLoop=1;jettySize=auto;html=1;" edge="1" parent="1" source="EBdAOXyR472dt-JqcAwF-5" target="EBdAOXyR472dt-JqcAwF-17">
          <mxGeometry relative="1" as="geometry" />
        </mxCell>
        <mxCell id="EBdAOXyR472dt-JqcAwF-5" value="Payroll management" style="rounded=0;whiteSpace=wrap;html=1;" vertex="1" parent="1">
          <mxGeometry x="40" y="320" width="120" height="60" as="geometry" />
        </mxCell>
        <mxCell id="EBdAOXyR472dt-JqcAwF-22" value="" style="edgeStyle=orthogonalEdgeStyle;rounded=0;orthogonalLoop=1;jettySize=auto;html=1;" edge="1" parent="1" source="EBdAOXyR472dt-JqcAwF-6" target="EBdAOXyR472dt-JqcAwF-21">
          <mxGeometry relative="1" as="geometry" />
        </mxCell>
        <mxCell id="EBdAOXyR472dt-JqcAwF-6" value="Invoice handling" style="rounded=0;whiteSpace=wrap;html=1;" vertex="1" parent="1">
          <mxGeometry x="360" y="320" width="120" height="60" as="geometry" />
        </mxCell>
        <mxCell id="EBdAOXyR472dt-JqcAwF-28" value="" style="edgeStyle=orthogonalEdgeStyle;rounded=0;orthogonalLoop=1;jettySize=auto;html=1;" edge="1" parent="1" source="EBdAOXyR472dt-JqcAwF-7" target="EBdAOXyR472dt-JqcAwF-27">
          <mxGeometry relative="1" as="geometry" />
        </mxCell>
        <mxCell id="EBdAOXyR472dt-JqcAwF-7" value="Contractors" style="rounded=0;whiteSpace=wrap;html=1;" vertex="1" parent="1">
          <mxGeometry x="520" y="320" width="120" height="60" as="geometry" />
        </mxCell>
        <mxCell id="EBdAOXyR472dt-JqcAwF-10" style="edgeStyle=orthogonalEdgeStyle;rounded=0;orthogonalLoop=1;jettySize=auto;html=1;exitX=0.5;exitY=1;exitDx=0;exitDy=0;entryX=0.5;entryY=0;entryDx=0;entryDy=0;" edge="1" parent="1" source="EBdAOXyR472dt-JqcAwF-8" target="EBdAOXyR472dt-JqcAwF-4">
          <mxGeometry relative="1" as="geometry" />
        </mxCell>
        <mxCell id="EBdAOXyR472dt-JqcAwF-11" style="edgeStyle=orthogonalEdgeStyle;rounded=0;orthogonalLoop=1;jettySize=auto;html=1;exitX=0.5;exitY=1;exitDx=0;exitDy=0;entryX=0.5;entryY=0;entryDx=0;entryDy=0;" edge="1" parent="1" source="EBdAOXyR472dt-JqcAwF-8" target="EBdAOXyR472dt-JqcAwF-6">
          <mxGeometry relative="1" as="geometry" />
        </mxCell>
        <mxCell id="EBdAOXyR472dt-JqcAwF-12" style="edgeStyle=orthogonalEdgeStyle;rounded=0;orthogonalLoop=1;jettySize=auto;html=1;exitX=0.5;exitY=1;exitDx=0;exitDy=0;entryX=0.5;entryY=0;entryDx=0;entryDy=0;" edge="1" parent="1" source="EBdAOXyR472dt-JqcAwF-8" target="EBdAOXyR472dt-JqcAwF-7">
          <mxGeometry relative="1" as="geometry" />
        </mxCell>
        <mxCell id="EBdAOXyR472dt-JqcAwF-14" style="edgeStyle=orthogonalEdgeStyle;rounded=0;orthogonalLoop=1;jettySize=auto;html=1;exitX=0.5;exitY=1;exitDx=0;exitDy=0;" edge="1" parent="1" source="EBdAOXyR472dt-JqcAwF-8" target="EBdAOXyR472dt-JqcAwF-5">
          <mxGeometry relative="1" as="geometry" />
        </mxCell>
        <mxCell id="EBdAOXyR472dt-JqcAwF-8" value="Management" style="rounded=1;whiteSpace=wrap;html=1;" vertex="1" parent="1">
          <mxGeometry x="125" y="260" width="450" height="20" as="geometry" />
        </mxCell>
        <mxCell id="EBdAOXyR472dt-JqcAwF-15" value="Cash is going to be stored in the safe" style="rounded=0;whiteSpace=wrap;html=1;" vertex="1" parent="1">
          <mxGeometry x="200" y="420" width="120" height="60" as="geometry" />
        </mxCell>
        <mxCell id="EBdAOXyR472dt-JqcAwF-20" value="" style="edgeStyle=orthogonalEdgeStyle;rounded=0;orthogonalLoop=1;jettySize=auto;html=1;" edge="1" parent="1" source="EBdAOXyR472dt-JqcAwF-17" target="EBdAOXyR472dt-JqcAwF-19">
          <mxGeometry relative="1" as="geometry" />
        </mxCell>
        <mxCell id="EBdAOXyR472dt-JqcAwF-17" value="Wage of staff management" style="rounded=0;whiteSpace=wrap;html=1;" vertex="1" parent="1">
          <mxGeometry x="40" y="420" width="120" height="60" as="geometry" />
        </mxCell>
        <mxCell id="EBdAOXyR472dt-JqcAwF-19" value="Tips are handled if not enough cash has been collected for tips" style="rounded=0;whiteSpace=wrap;html=1;" vertex="1" parent="1">
          <mxGeometry x="40" y="524.5" width="120" height="60" as="geometry" />
        </mxCell>
        <mxCell id="EBdAOXyR472dt-JqcAwF-24" value="" style="edgeStyle=orthogonalEdgeStyle;rounded=0;orthogonalLoop=1;jettySize=auto;html=1;" edge="1" parent="1" source="EBdAOXyR472dt-JqcAwF-21" target="EBdAOXyR472dt-JqcAwF-23">
          <mxGeometry relative="1" as="geometry" />
        </mxCell>
        <mxCell id="EBdAOXyR472dt-JqcAwF-21" value="Slips packing matched with the other invoices" style="rounded=0;whiteSpace=wrap;html=1;" vertex="1" parent="1">
          <mxGeometry x="360" y="420" width="120" height="60" as="geometry" />
        </mxCell>
        <mxCell id="EBdAOXyR472dt-JqcAwF-26" value="" style="edgeStyle=orthogonalEdgeStyle;rounded=0;orthogonalLoop=1;jettySize=auto;html=1;" edge="1" parent="1" source="EBdAOXyR472dt-JqcAwF-23" target="EBdAOXyR472dt-JqcAwF-25">
          <mxGeometry relative="1" as="geometry" />
        </mxCell>
        <mxCell id="EBdAOXyR472dt-JqcAwF-23" value="suppliers are contacted for any queries" style="rounded=0;whiteSpace=wrap;html=1;" vertex="1" parent="1">
          <mxGeometry x="360" y="525" width="120" height="60" as="geometry" />
        </mxCell>
        <mxCell id="EBdAOXyR472dt-JqcAwF-25" value="Paying suppliers" style="rounded=0;whiteSpace=wrap;html=1;" vertex="1" parent="1">
          <mxGeometry x="360" y="630" width="120" height="60" as="geometry" />
        </mxCell>
        <mxCell id="EBdAOXyR472dt-JqcAwF-30" value="" style="edgeStyle=orthogonalEdgeStyle;rounded=0;orthogonalLoop=1;jettySize=auto;html=1;" edge="1" parent="1" source="EBdAOXyR472dt-JqcAwF-27" target="EBdAOXyR472dt-JqcAwF-29">
          <mxGeometry relative="1" as="geometry" />
        </mxCell>
        <mxCell id="EBdAOXyR472dt-JqcAwF-27" value="Contractors are hired" style="rounded=0;whiteSpace=wrap;html=1;" vertex="1" parent="1">
          <mxGeometry x="520" y="420" width="120" height="60" as="geometry" />
        </mxCell>
        <mxCell id="EBdAOXyR472dt-JqcAwF-32" value="" style="edgeStyle=orthogonalEdgeStyle;rounded=0;orthogonalLoop=1;jettySize=auto;html=1;" edge="1" parent="1" source="EBdAOXyR472dt-JqcAwF-29" target="EBdAOXyR472dt-JqcAwF-31">
          <mxGeometry relative="1" as="geometry" />
        </mxCell>
        <mxCell id="EBdAOXyR472dt-JqcAwF-29" value="Contractors are fired" style="rounded=0;whiteSpace=wrap;html=1;" vertex="1" parent="1">
          <mxGeometry x="520" y="525" width="120" height="60" as="geometry" />
        </mxCell>
        <mxCell id="EBdAOXyR472dt-JqcAwF-31" value="Contractors are paid" style="rounded=0;whiteSpace=wrap;html=1;" vertex="1" parent="1">
          <mxGeometry x="520" y="630" width="120" height="60" as="geometry" />
        </mxCell>
      </root>
    </mxGraphModel>
  </diagram>
</mxfile>
